<?xml version="1.0" encoding="UTF-8"?><svg xmlns="http://www.w3.org/2000/svg" xmlns:xlink="http://www.w3.org/1999/xlink" viewBox="0 0 173 131"><defs><style>.h{fill:none;}.i{fill:#f966ed;}.j{fill:#e96ff3;}.k{fill:#e63fc2;}.l{fill:#f554b3;}.m{fill:#ff9cb1;}.n{fill:#ffe820;}.o{fill:#f431f3;}.p{fill:#f431a3;}.q{fill:#ffbf4f;}.r{fill:#ffad1d;}.s{fill:#ffac00;}.t{fill:#ffc139;}.u{fill:#e776a9;}.v{fill:#ff9329;}.w{fill:#ff924f;}.x{fill:#ff60ff;}.y{fill:#ff6269;}.a`{fill:#ff6c75;}.aa{fill:#ff5ac2;}.ab{fill:#ff8ff3;}.ac{fill:#ff839d;}.ad{fill:#ff8369;}.ae{fill:#9e1fff;}.af{fill:#a08aff;}.ag{fill:#89c6ff;}.ah{fill:#a764ef;}.ai{fill:#b34fff;}.aj{fill:#d38ddb;}.ak{fill:#ad41ff;}.al{fill:#ad77ff;}.am{fill:#a500ff;}.an{fill:#6d9efb;}.ao{fill:#6e84fa;}.ap{fill:#885dff;}.aq{fill:#6e67ff;}.ar{fill:#4849ff;}.as{clip-path:url(#f);}.at{clip-path:url(#e);}.au{clip-path:url(#d);}.av{clip-path:url(#g);}</style><clipPath id="d"><rect class="h" y="26" width="61" height="61"/></clipPath><clipPath id="e"><rect class="h" x="124" y="44" width="49" height="50"/></clipPath><clipPath id="f"><rect class="h" x="50" width="56" height="55"/></clipPath><clipPath id="g"><rect class="h" x="93" y="61" width="60" height="70"/></clipPath></defs><g id="a"/><g id="b"><g id="c"><g class="au"><path class="n" d="M59.906,56.661c0,16.469-13.349,29.818-29.823,29.818S.26,73.13,.26,56.661,13.609,26.849,30.083,26.849s29.823,13.349,29.823,29.813"/></g><path class="ag" d="M157.74,44.75c0,14.922-12.104,27.021-27.031,27.021s-27.036-12.099-27.036-27.021,12.104-27.026,27.036-27.026,27.031,12.099,27.031,27.026"/><path class="q" d="M91.521,72.167c0,15.479-12.552,28.026-28.031,28.026s-28.036-12.547-28.036-28.026,12.552-28.026,28.036-28.026,28.031,12.547,28.031,28.026"/><path class="r" d="M35.453,72.167c0,4.714,1.161,9.156,3.219,13.052,12.286-3.688,21.234-15.073,21.234-28.557,0-4.219-.875-8.229-2.458-11.87-12.578,2.76-21.995,13.969-21.995,27.375"/><path class="t" d="M72.839,33.182c0,13.193-10.698,23.885-23.896,23.885s-23.901-10.693-23.901-23.885,10.703-23.891,23.901-23.891,23.896,10.693,23.896,23.891"/><path class="s" d="M30.083,26.849c-1.453,0-2.875,.104-4.271,.302-.5,1.927-.771,3.948-.771,6.031,0,13.193,10.703,23.885,23.901,23.885,3.917,0,7.62-.943,10.885-2.615-1.13-15.432-14.016-27.604-29.745-27.604"/><path class="v" d="M40.828,55.656c2.536,.917,5.266,1.411,8.115,1.411,8.953,0,16.76-4.927,20.854-12.219-2.031-.464-4.141-.708-6.307-.708-9.313,0-17.557,4.536-22.661,11.516"/><path class="x" d="M116.813,87.953c0,13.193-10.698,23.885-23.896,23.885s-23.896-10.693-23.896-23.885,10.698-23.891,23.896-23.891,23.896,10.693,23.896,23.891"/><path class="l" d="M69.021,87.953c0,3.969,.969,7.719,2.688,11.016,11.474-3.516,19.813-14.182,19.813-26.802,0-2.771-.401-5.443-1.151-7.969-12,1.271-21.349,11.417-21.349,23.755"/><path class="aj" d="M133.281,26.734c0,13.193-10.698,23.891-23.901,23.891s-23.896-10.698-23.896-23.891S96.182,2.844,109.38,2.844s23.901,10.698,23.901,23.891"/><path class="af" d="M103.672,44.75c0,1.813,.182,3.589,.526,5.307,1.667,.37,3.406,.568,5.182,.568,13.203,0,23.901-10.698,23.901-23.891,0-3.182-.625-6.219-1.755-8.995-.271-.01-.547-.016-.818-.016-14.932,0-27.036,12.099-27.036,27.026"/><g class="at"><path class="an" d="M172.896,68.88c0,13.63-11.052,24.677-24.688,24.677s-24.682-11.047-24.682-24.677,11.052-24.677,24.682-24.677,24.688,11.047,24.688,24.677"/></g><path class="ao" d="M157.703,46.094c-2.922-1.219-6.13-1.891-9.495-1.891-13.63,0-24.682,11.047-24.682,24.677,0,.656,.026,1.302,.078,1.943,2.26,.62,4.646,.948,7.104,.948,14.474,0,26.297-11.38,26.995-25.677"/><g class="as"><path class="m" d="M105.969,27.036c0,15.135-12.271,27.406-27.417,27.406s-27.417-12.271-27.417-27.406S63.411-.375,78.552-.375s27.417,12.271,27.417,27.411"/></g><path class="ac" d="M56.641,10.557c-3.453,4.589-5.505,10.292-5.505,16.479,0,10.208,5.589,19.115,13.87,23.828,4.813-4.37,7.833-10.672,7.833-17.682,0-10.5-6.776-19.422-16.198-22.625"/><path class="u" d="M85.484,26.734c0,8.703,4.656,16.313,11.609,20.49,5.458-5.01,8.875-12.198,8.875-20.188,0-8.182-3.583-15.526-9.276-20.547-6.729,4.224-11.208,11.708-11.208,20.245"/><path class="w" d="M57.635,44.755c5.031,5.927,12.531,9.688,20.917,9.688,2.089,0,4.125-.234,6.083-.677-5.141-5.896-12.708-9.625-21.146-9.625-2.01,0-3.964,.214-5.854,.615"/><path class="a`" d="M57.635,44.75c2.073,2.443,4.568,4.521,7.37,6.115,1.901-1.724,3.521-3.755,4.792-6.016-2.031-.464-4.141-.708-6.307-.708-2.01,0-3.964,.208-5.854,.609"/><path class="ab" d="M122.286,61.714c0,15.141-12.276,27.411-27.417,27.411s-27.417-12.271-27.417-27.411,12.271-27.406,27.417-27.406,27.417,12.271,27.417,27.406"/><path class="i" d="M105.036,36.255c-.885,2.672-1.365,5.526-1.365,8.495,0,11.505,7.203,21.333,17.344,25.229,.823-2.604,1.271-5.385,1.271-8.266,0-11.542-7.141-21.422-17.25-25.458"/><path class="j" d="M87.115,35.422c3.479,8.896,12.135,15.203,22.266,15.203,3.411,0,6.646-.714,9.583-2-4.651-8.531-13.698-14.318-24.094-14.318-2.693,0-5.297,.391-7.755,1.115"/><path class="ah" d="M118.62,48.021c-.031-.057-.063-.115-.094-.167-.167-.276-.333-.552-.505-.828-.036-.057-.078-.115-.115-.172-.141-.214-.276-.422-.417-.63-.063-.089-.125-.172-.188-.26-.12-.177-.245-.349-.375-.521-.068-.099-.141-.188-.214-.281-.12-.161-.245-.328-.375-.484-.073-.094-.151-.188-.224-.281l-.391-.469c-.078-.089-.156-.182-.234-.271-.135-.156-.276-.307-.411-.458-.078-.089-.156-.172-.234-.255-.151-.156-.302-.313-.453-.464-.073-.073-.146-.151-.219-.224-.172-.167-.344-.333-.521-.5-.057-.052-.109-.109-.167-.161-.479-.443-.979-.87-1.49-1.281-.25-.203-.505-.396-.76-.589-.057-.042-.109-.078-.167-.12-.203-.151-.411-.297-.62-.443-.073-.052-.146-.099-.219-.151-.198-.13-.391-.26-.589-.385-.083-.052-.167-.104-.245-.156-.198-.12-.391-.24-.589-.354-.083-.052-.172-.104-.255-.151-.198-.115-.401-.229-.604-.339-.083-.047-.167-.089-.25-.135-.214-.115-.432-.224-.646-.333-.073-.036-.146-.073-.224-.109-.24-.115-.49-.229-.734-.344-.047-.021-.099-.042-.146-.068-.302-.13-.604-.26-.911-.38-.885,2.672-1.365,5.526-1.365,8.495,0,1.813,.182,3.589,.526,5.307,1.667,.365,3.401,.568,5.182,.568,3.411,0,6.646-.714,9.578-2-.109-.203-.224-.406-.339-.604"/><path class="aa" d="M68.964,52.719c2.984,1.115,6.219,1.724,9.589,1.724,11.99,0,22.182-7.693,25.906-18.411-2.984-1.115-6.219-1.724-9.589-1.724-11.99,0-22.182,7.693-25.906,18.411"/><path class="k" d="M93.427,34.349c-.224,.01-.448,.021-.672,.042-.156,.01-.307,.026-.464,.042-.188,.016-.38,.036-.568,.057-.172,.016-.339,.042-.51,.063-.167,.021-.339,.047-.505,.073-.182,.026-.359,.057-.542,.089-.151,.026-.302,.052-.453,.083-.193,.036-.38,.073-.573,.115-.135,.026-.271,.057-.406,.089l-.594,.141-.359,.094c-.208,.057-.417,.115-.62,.172l-.047,.016c1.938,4.948,5.474,9.094,9.979,11.802,3.302-3.031,5.859-6.865,7.365-11.193-.047-.016-.089-.031-.135-.047-.12-.047-.234-.089-.349-.13-.188-.063-.38-.13-.568-.193-.13-.042-.255-.078-.385-.12-.151-.047-.302-.094-.453-.135-.109-.031-.219-.068-.328-.099-.229-.057-.453-.12-.682-.177-.094-.026-.193-.047-.292-.068-.172-.047-.349-.083-.521-.12-.094-.021-.188-.047-.281-.063-.245-.052-.49-.099-.734-.141-.089-.016-.172-.031-.26-.047-.203-.036-.411-.068-.62-.099-.068-.01-.141-.021-.208-.026-.26-.036-.526-.073-.792-.099-.073-.01-.151-.016-.224-.021-.245-.026-.49-.047-.74-.068-.036,0-.073-.005-.109-.01-.276-.016-.557-.031-.839-.042-.068-.005-.141-.005-.208-.005-.286-.01-.573-.016-.859-.016-.359,0-.714,.005-1.063,.021-.13,.005-.255,.016-.38,.021"/><path class="ad" d="M72.641,45.667c-3.266,4.51-5.188,10.057-5.188,16.047,0,12.297,8.094,22.698,19.245,26.172,3.047-4.484,4.823-9.891,4.823-15.719,0-12.276-7.891-22.703-18.88-26.5"/><path class="y" d="M78.552,54.443c2.089,0,4.12-.24,6.073-.677-3.188-3.656-7.302-6.479-11.979-8.094-.057,.078-.115,.156-.172,.24-.104,.146-.208,.292-.313,.443l-.281,.422c-.094,.151-.188,.302-.281,.448-.094,.151-.188,.297-.276,.448s-.177,.297-.26,.448c-.089,.156-.177,.313-.266,.474l-.234,.438c-.089,.167-.172,.333-.255,.5-.073,.146-.146,.292-.214,.438-.083,.172-.161,.349-.24,.526-.068,.141-.13,.286-.193,.427-.078,.182-.151,.37-.229,.552-.052,.141-.109,.281-.167,.422-.073,.193-.146,.385-.214,.583-.026,.078-.057,.161-.083,.24,2.984,1.115,6.214,1.724,9.583,1.724"/><path class="o" d="M94.87,89.125c8.177,0,15.516-3.583,20.542-9.26-3.318-9.214-12.135-15.802-22.495-15.802-9.104,0-17.016,5.083-21.052,12.573,4.891,7.516,13.365,12.49,23.005,12.49"/><path class="p" d="M91.521,72.167c0-2.771-.401-5.443-1.151-7.969-8.016,.849-14.849,5.656-18.5,12.432l.203,.313,.25,.375c.167,.24,.339,.474,.516,.708,.089,.125,.182,.24,.271,.359,.104,.135,.208,.271,.318,.406,.094,.12,.193,.245,.297,.365,.104,.13,.214,.255,.323,.38,.099,.12,.198,.234,.302,.354,.125,.141,.255,.281,.391,.427,.13,.141,.266,.286,.401,.427,.156,.161,.313,.323,.474,.479,.104,.104,.214,.203,.318,.302,.125,.125,.255,.25,.385,.37,.109,.099,.219,.198,.333,.297,.135,.12,.276,.245,.417,.365l.313,.266c.229,.188,.464,.38,.703,.568,.089,.063,.177,.13,.266,.193,.167,.13,.339,.26,.516,.385,.109,.078,.219,.156,.328,.229,.161,.115,.318,.224,.484,.333,.109,.073,.219,.146,.333,.219,.182,.12,.375,.234,.563,.354,.083,.052,.172,.104,.26,.156,.266,.161,.536,.318,.813,.469,.094,.052,.193,.104,.286,.151,.193,.104,.391,.208,.583,.307,.115,.057,.224,.109,.333,.167,.198,.094,.391,.188,.589,.276l.313,.141c.281,.125,.568,.25,.849,.365,.036,.016,.068,.026,.104,.042,.286,.115,.573,.224,.859,.323,.104,.036,.203,.073,.307,.109,.214,.073,.432,.146,.651,.219,.063,.016,.12,.036,.182,.057,3.042-4.484,4.818-9.896,4.818-15.719"/><g class="av"><path class="al" d="M153.057,90.792c0-16.411-13.313-29.724-29.734-29.724s-29.734,13.313-29.734,29.724c0,7.807,3.016,14.906,7.938,20.208h-.005c10.474,12.151,26.557,20.438,41.911,19.458-8.74-2.25-14.167-6.583-17.302-10.078,15.104-1.411,26.927-14.12,26.927-29.589"/></g><path class="ap" d="M123.323,61.151c-4.245,0-8.281,.896-11.938,2.495,4.911,5.016,11.75,8.125,19.323,8.125,4.49,0,8.724-1.094,12.448-3.031-5.26-4.719-12.214-7.589-19.833-7.589"/><path class="ak" d="M116.813,87.953c0-8.75-4.703-16.396-11.719-20.563-7,5.443-11.505,13.938-11.505,23.484,0,7.5,2.786,14.349,7.37,19.578,9.24-3.302,15.854-12.13,15.854-22.5"/><path class="ai" d="M122.286,61.714c0-.177-.005-.359-.01-.542-15.344,.531-27.729,12.682-28.63,27.922,.401,.021,.813,.031,1.224,.031,15.141,0,27.417-12.271,27.417-27.411"/><path class="ae" d="M121.016,69.807c.823-2.609,1.271-5.385,1.271-8.266,0-.177-.005-.359-.01-.542h-.005c-1.417,.052-2.807,.203-4.167,.443-.026,0-.047,.005-.068,.01-.188,.031-.37,.068-.557,.104-.052,.01-.115,.026-.167,.036-.167,.031-.333,.068-.495,.104-.078,.016-.151,.036-.229,.052-.151,.036-.297,.073-.448,.109-.089,.021-.177,.042-.266,.068-.141,.036-.276,.073-.417,.109-.099,.026-.198,.057-.297,.083-.13,.036-.26,.073-.385,.115-.109,.031-.219,.063-.323,.099l-.359,.109-.359,.125c-.104,.031-.214,.068-.318,.104-.141,.052-.281,.104-.427,.156-.078,.031-.161,.063-.24,.089l-.672,.266c-.016,.005-.031,.016-.052,.021-.203,.083-.406,.172-.609,.26-.01,.005-.021,.01-.031,.01,2.698,2.75,5.974,4.927,9.63,6.333"/><path class="am" d="M115.406,79.865c-1.891-5.255-5.573-9.661-10.313-12.469l-.063,.047c-.177,.141-.349,.276-.521,.422-.083,.063-.161,.13-.24,.198-.115,.094-.229,.193-.344,.292-.083,.073-.167,.146-.255,.219-.104,.094-.214,.193-.323,.292-.078,.073-.161,.146-.24,.219-.12,.109-.234,.219-.349,.328-.068,.068-.135,.13-.203,.198-.172,.161-.339,.333-.51,.505-.073,.073-.141,.151-.214,.224-.104,.109-.203,.214-.302,.323-.083,.083-.161,.172-.24,.26-.089,.099-.182,.198-.271,.302-.078,.089-.156,.177-.234,.271-.094,.104-.182,.208-.271,.313l-.219,.266c-.141,.172-.281,.344-.417,.521-.078,.099-.156,.203-.234,.307s-.161,.208-.24,.318c-.078,.104-.151,.208-.229,.313-.073,.099-.141,.198-.208,.297-.078,.109-.156,.219-.229,.328-.068,.099-.13,.198-.198,.292-.073,.115-.151,.229-.224,.344-.057,.089-.12,.188-.177,.281-.141,.219-.276,.448-.411,.672-.052,.089-.104,.172-.156,.26-.073,.13-.146,.255-.219,.385-.047,.089-.099,.177-.146,.266-.073,.135-.141,.266-.214,.396-.042,.089-.089,.177-.135,.26-.068,.141-.141,.276-.208,.417-.031,.068-.068,.141-.099,.208-.167,.339-.323,.677-.474,1.021-.005,.016-.01,.026-.021,.042-.068,.156-.13,.318-.198,.474-.031,.073-.063,.146-.089,.219-.063,.156-.125,.307-.188,.464-.026,.078-.057,.151-.083,.229-.063,.156-.12,.318-.182,.479-.016,.057-.036,.115-.057,.172-.198,.563-.38,1.135-.542,1.719l-.047,.156c-.047,.172-.094,.349-.141,.526-.016,.068-.036,.13-.052,.198-.042,.177-.089,.354-.13,.536l-.031,.156c-.141,.62-.26,1.25-.359,1.885l-.016,.078c-.031,.188-.057,.385-.083,.578-.005,.057-.016,.12-.021,.177-.026,.188-.052,.38-.073,.573-.005,.052-.01,.109-.016,.161-.042,.438-.078,.875-.104,1.313,.401,.021,.813,.031,1.224,.031,8.177,0,15.516-3.583,20.536-9.26"/><path class="aq" d="M124.75,61.188c-.792,2.422-1.224,5.005-1.224,7.693,0,13.63,11.052,24.677,24.682,24.677,1.63,0,3.224-.161,4.766-.464,.052-.729,.083-1.469,.083-2.219,0-15.932-12.552-28.943-28.307-29.688"/><path class="ar" d="M123.552,69.943c.01,.292,.026,.589,.052,.88,2.26,.62,4.646,.948,7.104,.948,4.49,0,8.724-1.094,12.448-3.031-4.932-4.422-11.344-7.219-18.406-7.552-.198,.599-.37,1.208-.521,1.828-.005,.01-.005,.026-.01,.036-.146,.604-.266,1.214-.37,1.833-.005,.026-.01,.052-.01,.083-.052,.297-.094,.594-.13,.896-.005,.036-.005,.073-.01,.115-.036,.276-.063,.557-.083,.839-.005,.031-.005,.063-.01,.094-.021,.292-.042,.583-.052,.88-.005,.063-.005,.125-.01,.193-.01,.297-.016,.594-.016,.896,0,.297,.005,.589,.016,.88,.005,.063,.005,.12,.01,.182"/></g></g></svg>